<?xml version="1.0" standalone="no"?>
<!DOCTYPE svg PUBLIC "-//W3C//DTD SVG 20010904//EN"
 "http://www.w3.org/TR/2001/REC-SVG-20010904/DTD/svg10.dtd">
<svg version="1.0" xmlns="http://www.w3.org/2000/svg"
 width="1280.000000pt" height="975.000000pt" viewBox="0 0 1280.000000 975.000000"
 preserveAspectRatio="xMidYMid meet">
<metadata>
Created by potrace 1.15, written by Peter Selinger 2001-2017
</metadata>
<g transform="translate(0.000000,975.000000) scale(0.100000,-0.100000)"
fill="#000000" stroke="none">
<path d="M1416 9739 c-270 -39 -602 -232 -861 -500 -141 -146 -197 -238 -216
-353 -15 -88 -37 -119 -101 -140 -78 -24 -213 -641 -234 -1061 -5 -111 -1
-166 25 -375 43 -341 57 -427 92 -565 55 -220 132 -381 224 -470 29 -27 60
-65 69 -83 48 -93 71 -374 56 -677 -12 -237 -28 -379 -75 -653 -43 -249 -51
-334 -36 -389 26 -95 112 -146 246 -146 96 0 172 20 274 74 160 84 189 59 350
-304 101 -227 144 -285 194 -258 70 37 147 253 147 409 -1 124 -47 266 -112
338 -62 69 -72 109 -44 175 45 107 266 339 421 442 56 38 98 35 190 -12 173
-90 414 -289 720 -596 309 -309 385 -408 515 -670 113 -229 195 -346 298 -429
82 -65 139 -128 158 -172 41 -98 -9 -234 -156 -428 -30 -39 -114 -144 -186
-231 -169 -207 -265 -341 -314 -440 l-40 -80 10 -79 c50 -392 501 -1593 729
-1942 51 -79 86 -112 128 -120 116 -22 166 232 98 501 -24 96 -64 182 -141
305 -146 234 -283 547 -354 805 -25 94 -50 231 -50 280 0 47 5 59 46 114 208
276 1284 1050 1461 1051 28 0 36 -6 53 -40 50 -99 96 -340 130 -682 34 -349
79 -739 110 -963 48 -335 41 -439 -45 -714 -77 -247 -88 -303 -89 -436 l-1
-120 48 -32 c61 -41 112 -55 195 -54 118 1 180 58 133 122 -50 67 -34 134 53
219 29 28 54 65 68 100 32 84 35 287 9 565 -33 349 -28 836 14 1320 13 148
134 1176 139 1182 1 2 171 18 377 38 941 88 1260 140 1814 293 419 116 594
112 789 -19 161 -108 605 -604 857 -957 105 -147 201 -307 230 -384 21 -56 22
-67 11 -128 -55 -319 -416 -978 -762 -1390 -34 -41 -70 -90 -79 -109 -15 -32
-15 -34 11 -56 36 -31 98 -38 224 -24 l108 11 46 48 c53 56 106 75 181 65 90
-13 162 34 174 113 30 210 141 468 526 1230 167 330 267 538 262 546 -5 7
-107 142 -229 302 -315 412 -430 589 -464 713 -50 186 175 162 743 -79 635
-269 1024 -477 1204 -645 196 -181 314 -420 442 -890 124 -456 177 -777 141
-846 -6 -11 -29 -31 -51 -45 -45 -28 -63 -63 -74 -140 -6 -46 -4 -54 16 -72
58 -55 333 -35 470 34 70 35 81 83 59 264 -22 182 -68 381 -156 678 -120 404
-202 756 -264 1125 -74 444 -90 468 -410 588 -272 103 -575 307 -774 521 -164
176 -185 288 -166 904 19 626 45 940 92 1099 38 132 82 201 218 350 171 187
185 232 101 332 -62 75 -163 167 -206 187 -43 21 -69 11 -121 -45 -105 -115
-197 -291 -220 -420 -18 -107 -39 -129 -119 -129 -105 0 -250 73 -500 251
-327 232 -567 367 -728 408 -170 44 -295 55 -622 55 -482 1 -827 -38 -1370
-154 -533 -114 -1013 -173 -1665 -205 -643 -31 -1115 -92 -1520 -197 -432
-112 -430 -112 -740 -112 -287 0 -369 6 -855 69 -681 88 -984 117 -1254 121
l-234 3 -86 41 c-154 74 -393 248 -498 364 -119 130 -146 221 -146 491 0 327
68 615 215 910 174 351 387 577 672 715 131 63 227 84 366 77 129 -6 210 -26
415 -102 169 -62 185 -67 185 -51 0 25 -187 232 -256 284 -205 154 -466 219
-728 181z"/>
</g>
</svg>
